<?xml version="1.0" encoding="iso-8859-1"?>
<!-- Generator: Adobe Illustrator 19.0.0, SVG Export Plug-In . SVG Version: 6.00 Build 0)  -->
<svg version="1.1" id="Layer_1" xmlns="http://www.w3.org/2000/svg" xmlns:xlink="http://www.w3.org/1999/xlink" x="0px" y="0px"
	 viewBox="0 0 512 512" style="enable-background:new 0 0 512 512;" xml:space="preserve">
<g>
	<g>
		<path style="fill:#68433E;" d="M317.793,194.207h-52.966c-4.873,0-8.828,3.955-8.828,8.828v17.655
			c0,4.873,3.955,8.828,8.828,8.828c4.873,0,8.828-3.955,8.828-8.828v-8.828h35.31v8.828c0,4.873,3.955,8.828,8.828,8.828
			c4.873,0,8.828-3.955,8.828-8.828v-17.655C326.621,198.162,322.666,194.207,317.793,194.207"/>
		<path style="fill:#68433E;" d="M264.828,247.172c-4.873,0-8.828,3.955-8.828,8.828v8.828c0,4.873,3.955,8.828,8.828,8.828
			c4.873,0,8.828-3.955,8.828-8.828V256C273.655,251.127,269.7,247.172,264.828,247.172"/>
		<path style="fill:#68433E;" d="M264.828,291.31c-4.873,0-8.828,3.955-8.828,8.828v8.828c0,4.873,3.955,8.828,8.828,8.828
			c4.873,0,8.828-3.955,8.828-8.828v-8.828C273.655,295.265,269.7,291.31,264.828,291.31"/>
		<path style="fill:#68433E;" d="M317.793,247.172c-4.873,0-8.828,3.955-8.828,8.828v8.828c0,4.873,3.955,8.828,8.828,8.828
			c4.873,0,8.828-3.955,8.828-8.828V256C326.621,251.127,322.666,247.172,317.793,247.172"/>
		<path style="fill:#68433E;" d="M317.793,291.31c-4.873,0-8.828,3.955-8.828,8.828v8.828c0,4.873,3.955,8.828,8.828,8.828
			c4.873,0,8.828-3.955,8.828-8.828v-8.828C326.621,295.265,322.666,291.31,317.793,291.31"/>
	</g>
	<path style="fill:#D2D5D7;" d="M395.967,371.198c-2.481,15.695-8.148,30.526-16.728,43.811c12.615-0.23,19.941-2.322,28.796-14.212
		c3.69-4.952,9.41-14.23,6.197-20.621C411.945,375.612,405.086,372.337,395.967,371.198 M375.963,432.682
		c-2.074,0-4.175-0.035-6.312-0.062c-3.99-0.053-8.792,0.874-12.42-1.562c-2.119-1.421-3.725-3.822-4.043-6.356
		c-0.318-2.534,0.265-5.217,1.96-7.124c14.071-15.801,22.449-35.222,24.232-56.161c0.256-3.072,2.092-5.782,4.846-7.15
		c1.227-0.618,3.037-1.165,4.405-1.165c20.189,0,35.275,6.983,41.375,19.156c3.919,7.786,5.738,20.895-7.812,39.08
		C407.743,430.74,392.815,432.682,375.963,432.682"/>
	<path style="fill:#687492;" d="M141.241,432.552V167.724c0-14.627,11.855-26.483,26.483-26.483h282.483
		c14.627,0,26.483-11.855,26.483-26.483V26.483C476.69,11.855,464.834,0,450.207,0H26.483C11.855,0,0,11.855,0,26.483V256v229.517
		C0,500.145,11.855,512,26.483,512h423.724c14.627,0,26.483-11.855,26.483-26.483c0-14.627-11.855-26.483-26.483-26.483H167.724
		C153.097,459.034,141.241,447.179,141.241,432.552"/>
	<path style="fill:#A5A5A4;" d="M353.103,211.862H229.517c-9.754,0-17.655-7.901-17.655-17.655v-52.966h158.897v52.966
		C370.759,203.961,362.858,211.862,353.103,211.862"/>
	<polygon style="fill:#E6E6E6;" points="370.759,194.204 423.724,194.204 423.724,176.549 370.759,176.549 	"/>
	<path style="fill:#D1D4D1;" d="M494.345,203.034h-70.621c-9.71,0-17.655-7.945-17.655-17.655s7.945-17.655,17.655-17.655h70.621
		c9.71,0,17.655,7.945,17.655,17.655S504.055,203.034,494.345,203.034"/>
	<path style="fill:#E6E6E6;" d="M185.379,353.103c0,58.5,47.431,105.931,105.931,105.931s105.931-47.431,105.931-105.931H185.379z"
		/>
	<g>
		<path style="fill:#35495E;" d="M105.931,70.621c0-19.5-15.81-35.31-35.31-35.31s-35.31,15.81-35.31,35.31s15.81,35.31,35.31,35.31
			S105.931,90.121,105.931,70.621"/>
		<path style="fill:#35495E;" d="M211.862,70.621c0-19.5-15.81-35.31-35.31-35.31s-35.31,15.81-35.31,35.31s15.81,35.31,35.31,35.31
			S211.862,90.121,211.862,70.621"/>
		<path style="fill:#35495E;" d="M52.966,361.931c4.873,0,8.828-3.955,8.828-8.828c0-4.873-3.955-8.828-8.828-8.828H0v17.655H52.966
			z"/>
		<path style="fill:#35495E;" d="M52.966,397.241c4.873,0,8.828-3.955,8.828-8.828c0-4.873-3.955-8.828-8.828-8.828H0v17.655H52.966
			z"/>
		<path style="fill:#35495E;" d="M52.966,432.552c4.873,0,8.828-3.955,8.828-8.828c0-4.873-3.955-8.828-8.828-8.828H0v17.655H52.966
			z"/>
		<path style="fill:#35495E;" d="M52.966,467.862c4.873,0,8.828-3.955,8.828-8.828s-3.955-8.828-8.828-8.828H0v17.655H52.966z"/>
	</g>
</g>
<g>
</g>
<g>
</g>
<g>
</g>
<g>
</g>
<g>
</g>
<g>
</g>
<g>
</g>
<g>
</g>
<g>
</g>
<g>
</g>
<g>
</g>
<g>
</g>
<g>
</g>
<g>
</g>
<g>
</g>
</svg>
